<?xml version="1.0" standalone="no"?>
<!DOCTYPE svg PUBLIC "-//W3C//DTD SVG 20010904//EN"
 "http://www.w3.org/TR/2001/REC-SVG-20010904/DTD/svg10.dtd">
<svg version="1.0" xmlns="http://www.w3.org/2000/svg"
 width="640.000000pt" height="640.000000pt" viewBox="0 0 640.000000 640.000000"
 preserveAspectRatio="xMidYMid meet">
<metadata>
Created by potrace 1.14, written by Peter Selinger 2001-2017
</metadata>
<g transform="translate(0.000000,640.000000) scale(0.100000,-0.100000)"
fill="#000000" stroke="none">
<path d="M2995 5209 c-22 -4 -57 -10 -77 -13 -81 -13 -196 -69 -264 -128 -41
-36 -102 -124 -127 -183 -46 -109 -47 -127 -44 -905 2 -730 2 -735 24 -801 27
-77 84 -168 142 -225 34 -34 100 -70 206 -115 36 -15 179 -36 263 -38 l82 -2
0 1211 0 1211 -82 -2 c-46 -1 -101 -6 -123 -10z"/>
<path d="M975 5032 c-71 -8 -191 -44 -246 -73 -111 -59 -215 -190 -244 -304
-4 -16 -10 -39 -13 -50 -4 -11 -7 -625 -9 -1365 -2 -1468 -3 -1423 55 -1538
95 -185 261 -274 545 -289 l117 -6 0 1817 0 1817 -87 -3 c-49 -1 -101 -4 -118
-6z"/>
<path d="M1570 5024 c-105 -28 -206 -105 -253 -192 -47 -86 -67 -214 -51 -315
7 -38 7 -38 26 -17 27 29 114 32 155 4 27 -17 61 -86 70 -137 3 -18 6 -260 7
-539 1 -279 5 -510 8 -514 17 -16 172 -10 301 11 130 22 287 109 379 210 51
56 107 163 123 237 16 75 19 654 4 733 -26 139 -84 256 -172 351 -84 90 -177
143 -301 168 -85 18 -230 18 -296 0z"/>
<path d="M5365 3225 l0 -1818 95 6 c183 12 325 73 438 189 54 54 112 169 127
251 12 69 14 2658 2 2712 -4 17 -9 41 -12 55 -8 43 -48 143 -73 185 -55 90
-142 159 -247 193 -79 26 -110 32 -230 39 l-100 5 0 -1817z"/>
<path d="M3925 4718 c-234 -27 -388 -118 -474 -278 -71 -133 -66 -16 -69
-1506 l-2 -1341 72 3 c316 11 510 117 601 329 46 105 45 94 44 1485 l-2 1315
-55 0 c-31 0 -83 -3 -115 -7z"/>
<path d="M4717 3944 c-1 -1 -19 -5 -40 -8 -224 -35 -400 -203 -440 -421 -10
-54 -13 -248 -11 -830 1 -819 1 -820 56 -959 56 -144 176 -245 344 -292 84
-23 273 -27 353 -9 190 45 322 185 324 345 1 62 -19 160 -32 160 -3 0 -20 -9
-38 -20 -65 -39 -186 -35 -238 8 -35 29 -66 81 -82 135 -22 75 -26 1147 -5
1252 25 124 77 168 202 169 69 1 99 -7 161 -41 12 -7 29 52 32 112 15 242
-191 412 -490 404 -51 -2 -94 -4 -96 -5z"/>
<path d="M1540 3241 c-14 -5 -15 -71 -15 -531 0 -289 -3 -557 -6 -596 -8 -78
-36 -145 -72 -168 -44 -29 -128 -24 -141 10 -19 51 -48 -46 -45 -150 4 -131
43 -223 121 -291 56 -48 83 -60 186 -86 155 -39 366 -14 492 58 74 43 171 149
212 233 71 146 73 167 73 615 0 220 -3 414 -6 431 -31 151 -144 301 -285 380
-63 35 -184 77 -259 90 -49 8 -239 12 -255 5z"/>
</g>
</svg>
