<?xml version="1.0" standalone="no"?>
<!DOCTYPE svg PUBLIC "-//W3C//DTD SVG 20010904//EN"
 "http://www.w3.org/TR/2001/REC-SVG-20010904/DTD/svg10.dtd">
<svg version="1.0" xmlns="http://www.w3.org/2000/svg"
 width="640.000000pt" height="640.000000pt" viewBox="0 0 640.000000 640.000000"
 preserveAspectRatio="xMidYMid meet">
<metadata>
Created by potrace 1.14, written by Peter Selinger 2001-2017
</metadata>
<g transform="translate(0.000000,640.000000) scale(0.100000,-0.100000)"
fill="#000000" stroke="none">
<path d="M3708 5074 c-2 -1 -30 -5 -63 -7 -33 -3 -60 -6 -60 -7 0 -1 -11 -3
-25 -5 -14 -2 -38 -6 -55 -10 -16 -3 -43 -9 -60 -12 -16 -3 -38 -9 -47 -14
-10 -5 -18 -8 -18 -5 0 3 -21 -1 -47 -9 -39 -10 -219 -55 -328 -80 -11 -2 -58
-14 -105 -25 -72 -18 -167 -40 -230 -54 -8 -2 -35 -9 -60 -16 -25 -7 -56 -14
-68 -16 -13 -3 -49 -12 -80 -20 -32 -8 -66 -17 -77 -19 -11 -2 -31 -6 -45 -10
-14 -3 -36 -8 -50 -11 -14 -3 -34 -8 -45 -11 -11 -4 -24 -8 -30 -9 -5 -1 -41
-10 -80 -19 -38 -9 -80 -19 -93 -21 -54 -11 -213 -69 -283 -104 -70 -35 -188
-106 -199 -119 -3 -4 -16 -14 -30 -23 -64 -40 -280 -266 -280 -292 0 -4 -11
-18 -24 -32 -33 -37 -131 -235 -161 -329 -31 -96 -45 -155 -62 -260 -9 -60 -8
-282 1 -350 5 -33 10 -71 12 -85 3 -24 29 -128 40 -160 3 -8 5 -16 5 -17 0 -2
16 -49 35 -105 46 -131 118 -277 191 -386 71 -105 256 -296 321 -331 11 -6 26
-17 34 -23 22 -21 98 -69 98 -62 0 4 8 0 18 -8 18 -17 126 -68 142 -68 6 0 10
-5 10 -12 0 -6 3 -9 6 -5 4 3 19 0 34 -8 15 -8 30 -11 34 -8 3 4 6 2 6 -3 0
-5 10 -11 22 -11 13 -1 32 -7 43 -12 21 -11 149 -38 225 -49 79 -10 395 -4
395 8 0 1 9 3 20 5 11 2 36 7 55 11 19 4 37 8 40 8 3 1 11 5 18 9 6 5 12 6 12
3 0 -3 43 10 95 29 52 18 95 30 95 27 0 -4 4 -2 8 3 5 9 75 35 102 40 3 0 10
3 15 6 9 6 84 32 95 34 3 0 37 12 75 27 165 61 273 98 289 98 16 0 53 -64 48
-82 -1 -5 2 -8 6 -8 4 0 8 -10 9 -22 1 -13 4 -36 8 -53 8 -36 14 -226 7 -239
-3 -5 -5 -30 -6 -55 -1 -25 -5 -52 -9 -58 -5 -7 -4 -13 1 -13 5 0 9 -7 9 -15
0 -8 -3 -15 -7 -15 -8 0 -4 -49 5 -58 3 -3 11 -7 18 -8 7 -1 31 -7 55 -13 46
-13 76 -8 105 17 9 8 17 12 17 8 0 -4 20 5 45 18 25 14 45 23 45 20 0 -3 7 2
16 10 8 9 20 14 25 11 5 -4 9 -2 9 2 0 5 15 17 33 28 70 40 154 116 224 201
57 69 133 215 149 287 1 4 2 8 4 10 2 2 4 13 15 57 14 62 20 195 11 239 -7 29
2 37 97 86 42 22 77 44 77 48 0 5 4 6 9 3 5 -4 11 -3 13 2 1 4 30 28 63 54 66
50 164 150 210 213 17 22 33 42 36 45 3 3 23 37 44 75 21 39 41 72 44 75 3 3
7 10 8 15 1 6 16 44 33 85 17 41 35 91 40 112 6 21 15 56 20 78 6 22 12 57 15
78 3 20 8 57 11 82 8 59 3 315 -6 315 -1 0 -3 16 -5 35 -3 19 -16 78 -30 130
-26 97 -26 100 -39 135 -5 11 -12 34 -18 50 -27 81 -103 240 -135 283 -13 17
-20 32 -16 32 4 0 3 4 -2 8 -6 4 -22 23 -35 42 -74 106 -191 227 -293 303 -76
57 -170 117 -183 117 -8 0 -14 5 -14 10 0 6 -9 10 -20 10 -11 0 -20 4 -20 9 0
5 -8 11 -17 14 -10 3 -43 15 -73 27 -159 63 -276 86 -472 94 -37 2 -69 2 -70
0z"/>
<path d="M2870 1480 c0 -5 5 -10 11 -10 5 0 7 5 4 10 -3 6 -8 10 -11 10 -2 0
-4 -4 -4 -10z"/>
<path d="M3195 1449 c-4 -6 -5 -12 -2 -15 2 -3 7 2 10 11 7 17 1 20 -8 4z"/>
<path d="M3860 1446 c0 -2 8 -10 18 -17 15 -13 16 -12 3 4 -13 16 -21 21 -21
13z"/>
</g>
</svg>
